<?xml version="1.0" encoding="UTF-8"?>
<svg version="1.1" viewBox="0 0 2000 2000" width="1280" height="1280" xmlns="http://www.w3.org/2000/svg">
<path transform="translate(0)" d="m0 0h2e3v2e3h-2e3z" fill="transparent"/>
<path transform="translate(1366,806)" d="m0 0h57l45 1-2 17-6 18-9 16h67l8-32 1-1h91l70 1-1 8-12 46h-1l1-9 11-44-157 1-20 79h150v1l-153 1 2-11 9-36 1-2-69 1-8 9h50l9 7-1 12-29 165-45 255h-249l-3 9-11 29-7 25-3 18v9l2 8h87l1-8 6-10 8-7 16-8 16-4 8-1h29l18 3 16 6 9 7 6 7 4 10v6h161l-3-35-4-1-8-71h5l-3-29v-6h-7l2-12 4-7h10l3-13h77l4 10v3h7l5 6 1 3v10h-7l-1 17-2 17 3 1v9l-7 62-5 1-2 21-2 14h128v36h-24v370h-650v-370h-283l1 5v24l5 2 12 8 13 11 3 3 108 4 20 1 17 3 16 6 15 8 13 10 11 11 10 14 9 19 4 14 2 12v52l-2 128-1 41h-134l-1-9-6-125v-8h-153v136h-547v-370h-21v-36h63v-2l-6-2-13-9-11-11-8-13-4-12-1-6v-14l3-12 5-10 9-11 5-5-4-8-1-5v-10l2-6 11 2 8 5 7 7 3 6v-17l3-17 5-13 5-9h3l7 10 6 18 1 6 1 20 6-9 9-6 9-3h3l1 2v16l-5 13 5 1 10 9 6 9 4 10 2 10 1 13-4 15-7 13-10 11-12 9-7 4h69l1-152 4-11 7-9 10-6 8-2 86-1-8-9-1-6 14-50 14-47 15-46 9-22 9-16 10-14 10-11 11-9 15-10 15-7 20-6 21-3h17l31 2 34 4 34 6 20 6 17 8 15 10 10 8 10 9 9 11 9 13 11 21 12 31 2-8 35-204 1-3 114-3 289-7 7-2 12-13 9-11 12-13 7-8v3l-10 11-9 11-9 10-9 11h31l83-2 20-1 8-10h-32l-1 4-2 1h-7l-2-2v-7l3-3h6l4 5 34-1 9-16 6-18 2-13-3-1-60-1-36-1z" fill="#375A64"/>
<path transform="translate(1366,806)" d="m0 0h57l45 1-2 17-6 18-9 16h67l8-32 1-1h91l70 1-1 8-12 46h-1l1-9 11-44-157 1-20 79h150v1l-153 1 2-11 9-36 1-2-69 1-8 9h50l9 7-1 12-29 165-45 255h-249l-3 9-11 29-7 25-3 18v9l2 8h87l1-8 6-10 8-7 16-8 16-4 8-1h29l18 3 16 6 9 7 6 7 4 10v6h161l-3-35-4-1-8-71h5l-3-29v-6h-7l2-12 4-7h10l3-13h77l4 10v3h7l5 6 1 3v10h-7l-1 17-2 17 3 1v9l-7 62-5 1-2 21-2 14h128v36h-24v370h-650v-370h-282l-1-2-1-34h197v-2l-4-2-2-5v-21l5-23 6-19 5-4 24-14 32-19 27-16 15-9h312l1-10 31-176 29-165 4-23-36 1-420 3h-95l-3 22-36 222-2-3-16-42 1-12 35-204 1-3 114-3 289-7 7-2 12-13 9-11 12-13 7-8v3l-10 11-9 11-9 10-9 11h31l83-2 20-1 8-10h-32l-1 4-2 1h-7l-2-2v-7l3-3h6l4 5 34-1 9-16 6-18 2-13-3-1-60-1-36-1z" fill="#1A2E34"/>
<path transform="translate(1425,900)" d="m0 0h36l-1 12-32 182-31 176-1 4-312 1-25 15-26 15-25 15-22 13-4 3-7 23-4 19v21l3 6 2 1v2h-197l-1-14-6-165v-17l2 4 14 47v3l30-13 35-16 29-13 11-5h2l-15-43-9-25v-9l35-216 3-19 1-3 95-1z" fill="#FAFAFA"/>
<path transform="translate(256,1235)" d="m0 0 5 5 5 9 5 15 1 6 1 20 6-9 9-6 9-3h3l1 2v16l-5 13 5 1 10 9 6 9 4 10 2 10 1 13-4 15-7 13-10 11-12 9-7 4 70 1 1 179 3 14 5 12 8 12 12 12 14 8 13 5 7 2-5 15-2 11h332v136h-547v-370h-21v-36h63v-2l-6-2-13-9-11-11-8-13-4-12-1-6v-14l3-12 5-10 9-11 5-5-4-8-1-5v-10l2-6 11 2 8 5 7 7 3 6v-17l3-17 5-13 5-9z" fill="#1A2E34"/>
<path transform="translate(623,970)" d="m0 0h17l31 2 34 4 34 6 20 6 17 8 15 10 10 8 10 9 9 11 9 13 11 21 13 33 14 36 22 62 6 18v2l-28 13-36 16-22 10-18 8h-3l-15-50v13l8 220v23l-6-2-15-6-18-5-13-2-89-1-1-202-3-9-7-9-10-6-8-2-141-1-7-7-3-5 1-8 15-53 13-43 14-43 9-22 9-16 10-14 10-11 11-9 15-10 15-7 20-6z" fill="#FE4E59"/>
<path transform="translate(1063,1444)" d="m0 0h296v369h354v1h-650z" fill="#365963"/>
<path transform="translate(1366,806)" d="m0 0h57l45 1-2 17-6 18-9 16h67l8-32 1-1h91l70 1-1 8-12 46h-1l1-9 11-44-157 1-20 79h150v1l-153 1 2-11 9-36 1-2-69 1-8 9h50l9 7-1 12-29 165-45 255h-249l-3 9-11 29-7 25-3 18v9l1 8-177 1v-2l-4-2-2-5v-21l5-23 6-19 5-4 24-14 32-19 27-16 15-9h312l1-10 31-176 29-165 4-23-36 1-420 3h-95l-3 22-36 222-2-3-16-42 1-12 35-204 1-3 114-3 289-7 7-2 12-13 9-11 12-13 7-8v3l-10 11-9 11-9 10-9 11h31l83-2 20-1 8-10h-32l-1 4-2 1h-7l-2-2v-7l3-3h6l4 5 34-1 9-16 6-18 2-13-3-1-60-1-36-1z" fill="#375A64"/>
<path transform="translate(1e3 997)" d="m0 0h45l-1 11-34 188-5 27v3l26-14 4-21 2-16-9-11-1-4 4-4h8l2 1 6-38 10-60h46l-8 46 1 6 1 2-1 9-5 6-3 13 23-14 13-8h2l1 8-1 3h35l-2 14-18 94-1 4-31-1-2 6-12 19-16 9-25 15-26 15-25 15-22 13-4 3-7 23-4 19v21l3 6 2 1v2h-197l-1-14-6-165v-17l2 4 14 47v3l30-13 35-16 29-13 8-3 5 10 1 4 15 38h12l24-13 30-16 9-5 20-11 2-8 26-147 13-72 1-2h-41l-1 9-31 173-1 5h-1l1-12 30-173z" fill="#FEBE9B"/>
<path transform="translate(815,1498)" d="m0 0h22l85 3 20 1 17 3 16 6 15 8 13 10 11 11 10 14 9 19 4 14 2 12v52l-2 128-1 41h-134l-1-9-6-125v-8h29l-3-17-8-16-11-11-16-8-7-2-21-1-2-10-5-38-3-16-7-21-9-17-10-14-7-8z" fill="#1A2E34"/>
<path transform="translate(751,699)" d="m0 0h9l13 2 14 5 13 9 7 9 4 8 1 4v16l-4 12-8 11-9 9-15 11-8 5-3 25-2 13 7-1h31v1l-21 2h-17l-1 12-1 1h-14l-1-4-3-9-5-3h-11l-7 4-4 5-1 2v10l5 10 9 8-1 4-12 19-10 13-11 12-10 10-10 7-9 4-12 2h-12l-22-1-5-15-5-22-6-36-9-31-4-18-1-11v-10l2-16 4-15 8-17 8-11 11-11 14-9 14-6 19-5 18-2h29l10-6 11-4z" fill="#1A2E34"/>
<path transform="translate(640,1492)" d="m0 0h28l115 4 19 1 7 1 11 12 12 18 9 19 6 21 8 50v5h-214l-5 12-7 9-9 6-7 3-5 1h-177v-2l176-1 13-4 8-6 6-7 4-10 1-4z" fill="#1A2E34"/>
<path transform="translate(1441,688)" d="m0 0h70l11 1v1l-79 1-23 23 1 3 11 9 9 10 9 14 7 16 3 13 1 15-111 1-10 11-9 11-11 12-9 11-10 11-9 11-9 10-4-1-13-11-11-14-7-12-5-13-3-13-1-14 1-14 5-19 8-16 9-12 6-7 11-9 14-9 12-6 20-6 13-2h24l18 3 15 5 22 11 20-20z" fill="#FE4E59"/>
<path transform="translate(1218,974)" d="m0 0h45l-1 9-3 17 117 1-1 10-3 13h20l-1 11-36 195-2 11h-26v-1l24-1 34-189 4-23h-17l-10 51-22 1-21 115h-1l1-12 18-102 1-2h-94l-1 9-25 135-4 19h-22v-1h21l1-9 22-123 5-27 1-3h-41l-1 10-18 98h-1l1-12 17-96-42 1-11 11-16 14-1-3 17-100h67l4-24z" fill="#FA515C"/>
<path transform="translate(195,1444)" d="m0 0h48v369h499v1h-547z" fill="#375A64"/>
<path transform="translate(1025,1309)" d="m0 0h151l-3 9-11 29-7 25-3 18v9l1 8-177 1v-2l-4-2-2-5v-21l5-23 6-19 5-4 24-14z" fill="#375A64"/>
<path transform="translate(739,1275)" d="m0 0h21l12 5 3 4 6 165v23l-6-2-15-6-18-5-13-2-36-1-1-3v-19l10 3 16 6 13 3h12l12-3 13-7 7-6-4 2-12 7-13 4h-16l-15-4-23-9-2-7-4-44-5-35-7-37-5-20v-2h24l14-2 27-7z" fill="#FE4E59"/>
<path transform="translate(772,1212)" d="m0 0 2 4 14 47v3l18-8 4 1 11 27-1 12 9 7 15 36 7 12 8 8 11 7 13 5 5 1h18l12-3 16-8 20-12 22-13 5-2-2 9-6 23-2 10v21l3 6 2 1v2h-197l-1-14-6-165z" fill="#FBFAFA"/>
<path transform="translate(256,1235)" d="m0 0 5 5 5 9 5 15 1 6 1 20 6-9 9-6 9-3h3l1 2v16l-5 13 5 1 10 9 6 9 4 10 2 10 1 13-4 15-7 13-10 11-12 9-8 5h-46v-2l-6-2-13-9-11-11-8-13-4-12-1-6v-14l3-12 5-10 9-11 5-5-4-8-1-5v-10l2-6 11 2 8 5 7 7 3 6v-17l3-17 5-13 5-9z" fill="#365963"/>
<path transform="translate(1538,1234)" d="m0 0h77l4 10v3h7l5 6 1 3v10h-7l-1 17-2 17 3 1v9l-7 62-1 1h-84l-1-1-8-71h5l-3-29v-6h-7l2-12 4-7h10z" fill="#FF4F5A"/>
<path transform="translate(727,836)" d="m0 0h11l6 4 3 9v3h14l2-12 19-1v16l4 3 9-1 2-4 3-7 1-5h1l-1 10-4 6-5 4h-6l-4-2-1 1-3 38-3 23-4 11-4 6-7 7-11 5-5 1h-15l-3-1-1 18-1 10-1 1-11-1-31-4-22-2-19-1h-21v-13l1-12h34l12-2 14-7 13-12 9-9 13-17 13-20-1-4-8-7-5-10v-10l4-6 6-5z" fill="#FFBF9C"/>
<path transform="translate(1489,870)" d="m0 0 5 2 6 5-1 12-29 165-45 255h-398l3-3 13-8h373l1-10 26-152 12-70 14-82 13-76 6-35z" fill="#1A2E34"/>
<path transform="translate(637,1246)" d="m0 0 6 2 11 8 9 13 5 11 5 1h20l17-3 24-6 7-1h12l11 3 7 4 1 2-12-4h-21l-17 4-20 5-9 1h-14l-10-1 5 18 7 35 4 27 3 23 3 35 1 6 29 11 9 2h16l13-4 14-8 3-2-2 4-11 8-11 5-9 2h-12l-17-4-22-9 1 22h-53l-1-202z" fill="#BC343E"/>
<path transform="translate(1538,1234)" d="m0 0h77l4 10v3h7l5 6 1 3v10h-7l-1 17-2 17-1 1h-92l-3-29v-6h-7l2-12 4-7h10z" fill="#375A64"/>
<path transform="translate(211,1347)" d="m0 0h8l10 3 23 11 7 2h9l11-4 18-10 5-2h12l7 4 1 3 2 1-4 15-7 13-10 11-12 9-8 5h-46v-2l-6-2-13-9-11-11-8-13-4-12 1-3 7-6z" fill="#375A64"/>
<path transform="translate(640,1459)" d="m0 0h63l27 1 20 4 15 5 16 8 14 9 12 10v1h-27l-139-5-1-1z" fill="#FD4E59"/>
<path transform="translate(655,1681)" d="m0 0h36v129h-36z" fill="#375A64"/>
<path transform="translate(1296,1369)" d="m0 0h29l18 3 16 6 9 7 6 7 4 10v5h-136l-1-4 4-10 7-8 11-7 12-5 13-3z" fill="#375A64"/>
<path transform="translate(1130,1132)" d="m0 0h33l-1 10-18 97-1 1h-28l3-14 6-88z" fill="#FBFBFB"/>
<path transform="translate(1538,1234)" d="m0 0h77l4 10v3h7l5 6 1 3v10h-113l2-12 4-7h10z" fill="#1A2E34"/>
<path transform="translate(1064,1061)" d="m0 0h41l-3 21-4 23-20 20-7 8-10 11-1 2-1 22-7-6-4-3 1-13z" fill="#FBFBFB"/>
<path transform="translate(256,1235)" d="m0 0 5 5 5 9 5 15 1 6 1 20 6-9 9-6 9-3h3l1 2v16l-4 10-2 3h-22l-56-1-4-6-2-8v-10l2-6 11 2 8 5 7 7 3 6v-17l3-17 5-13 5-9z" fill="#FE4F59"/>
<path transform="translate(1536,1373)" d="m0 0h77l-2 21-2 14h-70z" fill="#375A64"/>
<path transform="translate(640,1459)" d="m0 0h63v1h-10l2 26v7h-27l-27-1-1-1z" fill="#BC343E"/>
<path transform="translate(1090,1456)" d="m0 0h96l144 1v35l-1 70h-1v-103h-236v103h197l31 1v1h-231v-107z" fill="#1A2E34"/>
<path transform="translate(1090,1572)" d="m0 0h45l195 1v35l-1 70h-1v-103h-236v103h184l39 1v1h-226v-107z" fill="#1A2E34"/>
<path transform="translate(1089,1689)" d="m0 0h241v35l-1 67h-1v-100l-236 1v102h174l62 1v1h-239z" fill="#1A2E34"/>
<path transform="translate(516,1121)" d="m0 0 2 1 7 103v2h-23l1-13z" fill="#BC343E"/>
<path transform="translate(1366,806)" d="m0 0h57l45 1-2 17-6 18-9 16h67l8-32 1-1h91l70 1-1 8-12 46h-1l1-9 11-44-157 1-20 79h150v1l-153 1 2-11 9-36 1-2-69 1-9 10-3-1 8-10h-32l-1 4-2 1h-7l-2-2v-7l3-3h6l4 5 34-1 9-16 6-18 2-13-3-1-60-1-36-1z" fill="#223A41"/>
<path transform="translate(303,1337)" d="m0 0h9l8 4 1 3h2v10l-6-5-3-1h-12l-30 15-4 1h-9l-12-4-20-10-8-2h-8l-10 4-4 6-2-2-1-7 7-8 6-3h13l12 5 17 8 6 2h15l30-15z" fill="#365963"/>
<path transform="translate(511,1058)" d="m0 0h15l16 5 14 7 14 10 10 9 11 9 10 9 18 12 11 5 11 3h20l15-4 16-7 25-14 17-10 17-8 17-5 8-1h9l17 3 19 5 6 1h10l7-1-2 2-4 1h-17l-27-6-16-1-16 3-16 6-22 12-25 15-19 9-13 4-5 1h-21l-12-3-16-8-14-10-10-9-8-7-11-10-16-12-15-8-12-4-16-2z" fill="#1B2F35"/>
<path transform="translate(1220,976)" d="m0 0h40l-1 11-3 14h-41l4-23z" fill="#FBFBFB"/>
<path transform="translate(1e3 997)" d="m0 0h45l-1 11-34 188-6 31-2 1 6-36 24-136 10-55 1-2h-41l-1 9-31 173-1 5h-1l1-12 30-173z" fill="#253F46"/>
<path transform="translate(1531,656)" d="m0 0h157l-1 11-14 73h-1l1-11 13-72-46 1h-107l-1 10-18 97 96 1 21 1v1h-120l1-9z" fill="#264048"/>
<path transform="translate(783,789)" d="m0 0h1v24l7-1 6 4 4 7 1 9-2-4-4-9-5-4-8 1v11l-1 10-19 1 2-23 2-15 10-7z" fill="#FFBF9C"/>
<path transform="translate(213,1272)" d="m0 0 11 2 8 5 7 7 4 8 1 8h-27l-4-6-2-8v-10z" fill="#BD343E"/>
<path transform="translate(922,1077)" d="m0 0h45l-1 10-28 151-1 3h-28v-1h27l1-10 26-144 1-7h-40l-2 14-20 109h-1l1-12 19-109z" fill="#264047"/>
<path transform="translate(1269,1086)" d="m0 0h45l-1 10-29 144-1 1h-29v-1h28l2-13 27-137 1-2h-41l-1 9-22 110h-1l1-11 20-106z" fill="#274149"/>
<path transform="translate(659,1425)" d="m0 0h19l12 3 31 12 9 2h16l13-4 14-8 3-2-2 4-11 8-11 5-9 2h-12l-17-4-28-11-13-3h-14l-12 4-4 2 1-3 8-5z" fill="#1A2E35"/>
<path transform="translate(1372,1024)" d="m0 0h20l-1 11-36 195-2 11h-26v-1l24-1 34-189 4-23-17-1z" fill="#27424A"/>
<path transform="translate(741,1271)" d="m0 0h12l11 3 7 4 1 2-12-4h-21l-17 4-20 5-9 1h-14l-19-3-13-5-1-2 20 4 7 1h20l17-3 24-6z" fill="#1C3137"/>
<path transform="translate(1198,1045)" d="m0 0h113l28 1v1l-23 1h-122l-24-1v-1z" fill="#FDD7C2"/>
<path transform="translate(1044,1177)" d="m0 0 7 6 8 8v10l-19 10h-2l5-30z" fill="#FBFBFB"/>
<path transform="translate(1062,1059)" d="m0 0h46l-8 46-2 3-1-3 7-41 1-3h-41l-1 11-15 86h-2l3-21z" fill="#1B3037"/>
<path transform="translate(1521,716)" d="m0 0h1l-1 11-7 38 96 1 21 1v1h-120l1-9 8-42z" fill="#304F58"/>
<path transform="translate(1131,1130)" d="m0 0h35l-2 14-18 94-1 4-30-1v-1l28-1 20-107h-33z" fill="#223B42"/>
<path transform="translate(1242,1078)" d="m0 0h2l-1 9-25 135-4 19h-22v-1h21l1-9 22-123 5-27z" fill="#27424A"/>
<path transform="translate(211,1345)" d="m0 0h9l12 4 21 10 4 1h14l28-14 3-1h11l6 3 1 2-6-2h-12l-30 15-4 1h-9l-12-4-20-10-8-2h-8l-10 3 4-4z" fill="#1A2E34"/>
<path transform="translate(208,1336)" d="m0 0h12l14 5 16 8 8 2h9l11-4 16-9 6-2h13l6 3 1 2-5-2-3-1h-9l-12 5-14 8-7 3h-15l-13-5-19-9-3-1h-13l-8 4-3 2 2-4z" fill="#1A2E34"/>
<path transform="translate(782,1478)" d="m0 0 9 5 16 13v1h-24l-1-1z" fill="#FBFBFB"/>
<path transform="translate(1208,1501)" d="m0 0 6 1 5 5v6l-5 6-5 1-5-2-3-4v-7l4-5z" fill="#375A64"/>
<path transform="translate(1205,1734)" d="m0 0h9l5 5v6l-3 5-2 1h-9l-4-5-1-4 3-6z" fill="#375A64"/>
<path transform="translate(1209,1617)" d="m0 0 7 2 3 5-1 7-4 4h-9l-4-5v-7l4-5z" fill="#375A64"/>
<path transform="translate(1092,1131)" d="m0 0 1 3-2 13-11 25h-1v-26l9-10z" fill="#FBFBFB"/>
<path transform="translate(1441,688)" d="m0 0h70l11 1v1l-79 1-24 24-8 7-7 6 2-4 31-31z" fill="#20373E"/>
<path transform="translate(1366,806)" d="m0 0h57l45 1-2 17-6 18-7 13-2-1 2-5 6-13 4-13 2-13-3-1-60-1-36-1z" fill="#29454D"/>
<path transform="translate(1218,974)" d="m0 0h45l-1 9-3 17-3 1 2-14 2-11h-40l-4 24-3 1 4-24z" fill="#1C3137"/>
<path transform="translate(922,1082)" d="m0 0h1l-1 11-20 109h-1l1-12 18-103z" fill="#253F46"/>
<path transform="translate(1269,1091)" d="m0 0h1l-1 11-21 105h-1l1-11 19-100z" fill="#27434B"/>
<path transform="translate(1372,1024)" d="m0 0h20l-1 11-11 59h-2l1-11 10-56-17-1z" fill="#223B42"/>
<path transform="translate(1063,1061)" d="m0 0h1l-1 11-15 86h-2l3-21 12-72z" fill="#253F47"/>
<path transform="translate(1e3 997)" d="m0 0h43v1h-41l-1 10-9 50h-2l1-11z" fill="#20383F"/>
<path transform="translate(1207,1615)" d="m0 0 8 1 5 6v9l-4 5-5 2-7-1-6-7v-7l3-5zm2 2-5 2-3 4v7l4 5h9l4-4 1-7-3-5z" fill="#1A2E34"/>
<path transform="translate(1592,875)" d="m0 0h22l31 1v1l-28 1h-28l-29-1v-1z" fill="#253E46"/>
<path transform="translate(1207,1731)" d="m0 0 7 1 5 4 1 3v8l-4 5-4 2-8-1-5-5-1-8 3-5 3-3zm-2 3-4 5-1 4 3 6 2 2h9l4-4 1-2v-6l-5-5z" fill="#1A2E34"/>
<path transform="translate(1532,658)" d="m0 0h1l-1 10-9 49h-3l5-29 5-27z" fill="#223B42"/>
<path transform="translate(1207,1499)" d="m0 0 8 1 5 6v9l-4 5-2 1h-9l-6-5-1-8 3-6zm1 2-5 3-2 3v7l4 5 6 1 5-3 3-4v-6l-5-5z" fill="#1A2E34"/>
<path transform="translate(1154,1187)" d="m0 0 1 4-10 51-30-1v-1l28-1 9-48z" fill="#243E46"/>
<path transform="translate(1404,853)" d="m0 0h6l5 6-2 1-1 4-2 1h-7l-2-2v-7z" fill="#1C3238"/>
<path transform="translate(1396,728)" d="m0 0 7 1v9l-4 3-6-1-2-3 1-7z" fill="#1D3037"/>
<path transform="translate(1048,997)" d="m0 0h2l-1 11-4 20-2 1 1-12 3-16 1-2h-41v-1z" fill="#29454D"/>
<path transform="translate(1269,1086)" d="m0 0h45v5l-3 2 1-5h-41l-1 4h-2z" fill="#1C3137"/>
<path transform="translate(1242,1078)" d="m0 0h2l-1 9-8 43h-2l1-11 7-38z" fill="#243E45"/>
<path transform="translate(922,1077)" d="m0 0h45v5l-3 1v-4h-40v3l-3 1z" fill="#1C3138"/>
<path transform="translate(1312,1092)" d="m0 0 1 4-9 45-3 2 5-28 4-20z" fill="#233C44"/>
<path transform="translate(1518,863)" d="m0 0h1l-1 9-9 35 3 2h-6l2-11 8-32z" fill="#243D45"/>
<path transform="translate(1441,688)" d="m0 0 2 1-2 4-22 22-8 7-7 6 2-4 31-31z" fill="#213A41"/>
<path transform="translate(1340,827)" d="m0 0v3l-10 11-9 11-9 10-9 11-3 1 2-4 10-11 9-11 12-13z" fill="#243E46"/>
<path transform="translate(1512,765)" d="m0 0 62 2v1h-63z" fill="#1A2E34"/>
<path transform="translate(1527,827)" d="m0 0h1l-1 9-7 28h-3l1-4h-6v-1l6-1 7-28z" fill="#264048"/>
<path transform="translate(1105,1066)" d="m0 0h1l-1 11-5 28-2 3-1-3 6-35z" fill="#223B42"/>
<path transform="translate(950,916)" d="m0 0h6l2 2v6l-2 2h-6l-2-2v-6z" fill="#1D343A"/>
<path transform="translate(1281,606)" d="m0 0h5l3 4-1 5-7 1-3-3 1-5z" fill="#1D3339"/>
<path transform="translate(1256,606)" d="m0 0h5l3 3-1 6-1 1h-6l-3-4 2-5z" fill="#1E343A"/>
<path transform="translate(1231,606)" d="m0 0 7 1 1 7-2 2h-6l-2-2v-6z" fill="#1E343B"/>
<path transform="translate(1269,1091)" d="m0 0h1l-1 11-6 30-2 1 1-11 6-30z" fill="#233D44"/>
<path transform="translate(1063,1061)" d="m0 0h1l-1 11-5 29-3 2 6-38z" fill="#233C43"/>
<path transform="translate(975,916)" d="m0 0 7 1 1 6-2 3h-6l-2-2v-6z" fill="#1D3339"/>
<path transform="translate(926,916)" d="m0 0h5l2 2v6l-2 2h-6l-2-3 1-6z" fill="#1D3339"/>
<path transform="translate(1117,1139)" d="m0 0 3 1-9 6-8 16-5 11-1-3 9-22 4-5z" fill="#FF4F5A"/>
<path transform="translate(1131,1130)" d="m0 0h35v3l-3 1v-2h-33z" fill="#1B3036"/>
<path transform="translate(770,837)" d="m0 0h31v1l-21 2h-16l1-2z" fill="#1E343B"/>
<path transform="translate(912,1281)" d="m0 0 1 3-9 25-4 9-1-3 10-28z" fill="#FF4F5A"/>
<path transform="translate(958,1114)" d="m0 0h2l-1 11-4 21h-2l1-10z" fill="#233C44"/>
<path transform="translate(1372,1024)" d="m0 0h20l-1 11h-3l1-8-17-1z" fill="#27424A"/>
<path transform="translate(801,841)" d="m0 0h1l-1 10-4 6-5 4h-6l-6-4 2-2 4 3 9-1 2-4 3-7z" fill="#243E46"/>
<path transform="translate(821,1288)" d="m0 0 2 3 5 11-1 2-8-6z" fill="#2F4F58"/>
<path transform="translate(786,812)" d="m0 0 7 1 5 4 4 9v6l-2-4-4-9-5-4-8 1 1-3z" fill="#264148"/>
<path transform="translate(1261,978)" d="m0 0h1l-1 11-2 11-3 1 2-14z" fill="#223A42"/>
<path transform="translate(1512,887)" d="m0 0 1 4-4 16 3 2h-6l2-11 3-10z" fill="#233B43"/>
<path transform="translate(1517,742)" d="m0 0 1 2-4 21-3 1 4-23z" fill="#243E45"/>
<path transform="translate(1218,978)" d="m0 0h1l-1 11-2 11-3 1 3-19z" fill="#233C43"/>
<path transform="translate(1121,1151)" d="m0 0 2 1-4 6-7 19-1-3 4-14 5-8z" fill="#FF4F5A"/>
<path transform="translate(1164,1133)" d="m0 0h1l-1 11-2 10-3 1 3-18z" fill="#233C44"/>
<path transform="translate(1340,827)" d="m0 0v3l-10 11-9 11-1-3 13-14z" fill="#28444C"/>
<path transform="translate(1145,1231)" d="m0 0h1v7l-1 4-30-1v-1l28-1z" fill="#29454D"/>
<path transform="translate(1389,1034)" d="m0 0h1l-1 12-2 10h-2l1-12 2-9z" fill="#223A41"/>
<path transform="translate(1032,1091)" d="m0 0h1l-1 11-2 11h-2l1-12 2-9z" fill="#223B42"/>
<path transform="translate(1532,658)" d="m0 0h1l-1 10-2 9-2 1 1-11 2-8z" fill="#213940"/>
<path transform="translate(1237,1109)" d="m0 0h1l-1 11-2 10h-2l1-11 2-9z" fill="#223B42"/>
<path transform="translate(1044,1028)" d="m0 0 1 2-3 17h-3l3-18z" fill="#243D45"/>
<path transform="translate(1459,838)" d="m0 0 1 4-7 13-2-1 2-5z" fill="#233C43"/>
<path transform="translate(212,1354)" d="m0 0h5l1 5-1 1h-5l-1-5z" fill="#1E343B"/>
<path transform="translate(1040,1046)" d="m0 0h1l-1 12-1 5-3 1 3-17z" fill="#223A41"/>
<path transform="translate(306,1355)" d="m0 0h5l1 5-1 1h-5l-1-5z" fill="#1E353B"/>
<path transform="translate(1384,1056)" d="m0 0h2l-1 11-1 6-3 1z" fill="#243D44"/>
<path transform="translate(261,1338)" d="m0 0 4 1 1 4-2 2-5-1 1-5z" fill="#1E353C"/>
<path transform="translate(770,837)" d="m0 0h8l2 3h-16l1-2z" fill="#304851"/>
<path transform="translate(1466,807)" d="m0 0h2l-1 11-3 2 1-10-3-2z" fill="#27424A"/>
<path transform="translate(1524,704)" d="m0 0 1 2-2 11h-3l2-12z" fill="#243D45"/>
<path transform="translate(1445,862)" d="m0 0v3l-5 6-3-1 6-7z" fill="#233C44"/>
<path transform="translate(1e3 1e3)" d="m0 0h1l-1 12-3 1 2-12z" fill="#223B42"/>
</svg>
