<svg xmlns="http://www.w3.org/2000/svg" version="1.1" xmlns:xlink="http://www.w3.org/1999/xlink" xmlns:svgjs="http://svgjs.dev/svgjs" width="1440" height="560" preserveAspectRatio="none" viewBox="0 0 1440 560"><g mask="url(&quot;#SvgjsMask1065&quot;)" fill="none"><path d="M130.01 317.11L194.97 354.61L194.97 429.61L130.01 467.11L65.06 429.61L65.06 354.61zM130.01 542.11L194.97 579.61L194.97 654.61L130.01 692.11L65.06 654.61L65.06 579.61zM194.97 -20.39L259.92 17.11L259.92 92.11L194.97 129.61L130.01 92.11L130.01 17.11zM194.97 204.61L259.92 242.11L259.92 317.11L194.97 354.61L130.01 317.11L130.01 242.11zM259.92 317.11L324.88 354.61L324.88 429.61L259.92 467.11L194.97 429.61L194.97 354.61zM259.92 542.11L324.88 579.61L324.88 654.61L259.92 692.11L194.97 654.61L194.97 579.61zM389.83 92.11L454.78 129.61L454.78 204.61L389.83 242.11L324.88 204.61L324.88 129.61zM324.88 204.61L389.83 242.11L389.83 317.11L324.88 354.61L259.92 317.11L259.92 242.11zM324.88 429.61L389.83 467.11L389.83 542.11L324.88 579.61L259.92 542.11L259.92 467.11zM454.78 -20.39L519.74 17.11L519.74 92.11L454.78 129.61L389.83 92.11L389.83 17.11zM519.74 542.11L584.69 579.61L584.69 654.61L519.74 692.11L454.78 654.61L454.78 579.61zM649.64 92.11L714.6 129.61L714.6 204.61L649.64 242.11L584.69 204.61L584.69 129.61zM584.69 204.61L649.64 242.11L649.64 317.11L584.69 354.61L519.74 317.11L519.74 242.11zM584.69 429.61L649.64 467.11L649.64 542.11L584.69 579.61L519.74 542.11L519.74 467.11zM649.64 542.11L714.6 579.61L714.6 654.61L649.64 692.11L584.69 654.61L584.69 579.61zM714.6 -20.39L779.55 17.11L779.55 92.11L714.6 129.61L649.64 92.11L649.64 17.11zM779.55 317.11L844.51 354.61L844.51 429.61L779.55 467.11L714.6 429.61L714.6 354.61zM714.6 429.61L779.55 467.11L779.55 542.11L714.6 579.61L649.64 542.11L649.64 467.11zM909.46 317.11L974.41 354.61L974.41 429.61L909.46 467.11L844.5 429.61L844.5 354.61zM844.5 429.61L909.46 467.11L909.46 542.11L844.5 579.61L779.55 542.11L779.55 467.11zM1039.37 317.11L1104.32 354.61L1104.32 429.61L1039.37 467.11L974.41 429.61L974.41 354.61zM1169.27 92.11L1234.23 129.61L1234.23 204.61L1169.27 242.11L1104.32 204.61L1104.32 129.61zM1104.32 204.61L1169.27 242.11L1169.27 317.11L1104.32 354.61L1039.37 317.11L1039.37 242.11zM1169.27 317.11L1234.23 354.61L1234.23 429.61L1169.27 467.11L1104.32 429.61L1104.32 354.61zM1104.32 429.61L1169.27 467.11L1169.27 542.11L1104.32 579.61L1039.37 542.11L1039.37 467.11zM1299.18 92.11L1364.13 129.61L1364.13 204.61L1299.18 242.11L1234.23 204.61L1234.23 129.61zM1299.18 542.11L1364.13 579.61L1364.13 654.61L1299.18 692.11L1234.23 654.61L1234.23 579.61zM1429.09 92.11L1494.04 129.61L1494.04 204.61L1429.09 242.11L1364.13 204.61L1364.13 129.61zM1429.09 317.11L1494.04 354.61L1494.04 429.61L1429.09 467.11L1364.13 429.61L1364.13 354.61zM1429.09 542.11L1494.04 579.61L1494.04 654.61L1429.09 692.11L1364.13 654.61L1364.13 579.61zM1559 92.11L1623.95 129.61L1623.95 204.61L1559 242.11L1494.04 204.61L1494.04 129.61zM1494.04 204.61L1559 242.11L1559 317.11L1494.04 354.61L1429.09 317.11L1429.09 242.11zM1494.04 429.61L1559 467.11L1559 542.11L1494.04 579.61L1429.09 542.11L1429.09 467.11zM1559 542.11L1623.95 579.61L1623.95 654.61L1559 692.11L1494.04 654.61L1494.04 579.61z" stroke="#03305d" stroke-width="2"></path><path d="M122.51 317.11 a7.5 7.5 0 1 0 15 0 a7.5 7.5 0 1 0 -15 0zM187.47 354.61 a7.5 7.5 0 1 0 15 0 a7.5 7.5 0 1 0 -15 0zM187.47 429.61 a7.5 7.5 0 1 0 15 0 a7.5 7.5 0 1 0 -15 0zM122.51 467.11 a7.5 7.5 0 1 0 15 0 a7.5 7.5 0 1 0 -15 0zM57.56 429.61 a7.5 7.5 0 1 0 15 0 a7.5 7.5 0 1 0 -15 0zM57.56 354.61 a7.5 7.5 0 1 0 15 0 a7.5 7.5 0 1 0 -15 0zM122.51 542.11 a7.5 7.5 0 1 0 15 0 a7.5 7.5 0 1 0 -15 0zM187.47 579.61 a7.5 7.5 0 1 0 15 0 a7.5 7.5 0 1 0 -15 0zM187.47 654.61 a7.5 7.5 0 1 0 15 0 a7.5 7.5 0 1 0 -15 0zM122.51 692.11 a7.5 7.5 0 1 0 15 0 a7.5 7.5 0 1 0 -15 0zM57.56 654.61 a7.5 7.5 0 1 0 15 0 a7.5 7.5 0 1 0 -15 0zM57.56 579.61 a7.5 7.5 0 1 0 15 0 a7.5 7.5 0 1 0 -15 0zM187.47 -20.39 a7.5 7.5 0 1 0 15 0 a7.5 7.5 0 1 0 -15 0zM252.42 17.11 a7.5 7.5 0 1 0 15 0 a7.5 7.5 0 1 0 -15 0zM252.42 92.11 a7.5 7.5 0 1 0 15 0 a7.5 7.5 0 1 0 -15 0zM187.47 129.61 a7.5 7.5 0 1 0 15 0 a7.5 7.5 0 1 0 -15 0zM122.51 92.11 a7.5 7.5 0 1 0 15 0 a7.5 7.5 0 1 0 -15 0zM122.51 17.11 a7.5 7.5 0 1 0 15 0 a7.5 7.5 0 1 0 -15 0zM187.47 204.61 a7.5 7.5 0 1 0 15 0 a7.5 7.5 0 1 0 -15 0zM252.42 242.11 a7.5 7.5 0 1 0 15 0 a7.5 7.5 0 1 0 -15 0zM252.42 317.11 a7.5 7.5 0 1 0 15 0 a7.5 7.5 0 1 0 -15 0zM122.51 242.11 a7.5 7.5 0 1 0 15 0 a7.5 7.5 0 1 0 -15 0zM317.38 354.61 a7.5 7.5 0 1 0 15 0 a7.5 7.5 0 1 0 -15 0zM317.38 429.61 a7.5 7.5 0 1 0 15 0 a7.5 7.5 0 1 0 -15 0zM252.42 467.11 a7.5 7.5 0 1 0 15 0 a7.5 7.5 0 1 0 -15 0zM252.42 542.11 a7.5 7.5 0 1 0 15 0 a7.5 7.5 0 1 0 -15 0zM317.38 579.61 a7.5 7.5 0 1 0 15 0 a7.5 7.5 0 1 0 -15 0zM317.38 654.61 a7.5 7.5 0 1 0 15 0 a7.5 7.5 0 1 0 -15 0zM252.42 692.11 a7.5 7.5 0 1 0 15 0 a7.5 7.5 0 1 0 -15 0zM382.33 92.11 a7.5 7.5 0 1 0 15 0 a7.5 7.5 0 1 0 -15 0zM447.28 129.61 a7.5 7.5 0 1 0 15 0 a7.5 7.5 0 1 0 -15 0zM447.28 204.61 a7.5 7.5 0 1 0 15 0 a7.5 7.5 0 1 0 -15 0zM382.33 242.11 a7.5 7.5 0 1 0 15 0 a7.5 7.5 0 1 0 -15 0zM317.38 204.61 a7.5 7.5 0 1 0 15 0 a7.5 7.5 0 1 0 -15 0zM317.38 129.61 a7.5 7.5 0 1 0 15 0 a7.5 7.5 0 1 0 -15 0zM382.33 317.11 a7.5 7.5 0 1 0 15 0 a7.5 7.5 0 1 0 -15 0zM382.33 467.11 a7.5 7.5 0 1 0 15 0 a7.5 7.5 0 1 0 -15 0zM382.33 542.11 a7.5 7.5 0 1 0 15 0 a7.5 7.5 0 1 0 -15 0zM447.28 -20.39 a7.5 7.5 0 1 0 15 0 a7.5 7.5 0 1 0 -15 0zM512.24 17.11 a7.5 7.5 0 1 0 15 0 a7.5 7.5 0 1 0 -15 0zM512.24 92.11 a7.5 7.5 0 1 0 15 0 a7.5 7.5 0 1 0 -15 0zM382.33 17.11 a7.5 7.5 0 1 0 15 0 a7.5 7.5 0 1 0 -15 0zM512.24 542.11 a7.5 7.5 0 1 0 15 0 a7.5 7.5 0 1 0 -15 0zM577.19 579.61 a7.5 7.5 0 1 0 15 0 a7.5 7.5 0 1 0 -15 0zM577.19 654.61 a7.5 7.5 0 1 0 15 0 a7.5 7.5 0 1 0 -15 0zM512.24 692.11 a7.5 7.5 0 1 0 15 0 a7.5 7.5 0 1 0 -15 0zM447.28 654.61 a7.5 7.5 0 1 0 15 0 a7.5 7.5 0 1 0 -15 0zM447.28 579.61 a7.5 7.5 0 1 0 15 0 a7.5 7.5 0 1 0 -15 0zM642.14 92.11 a7.5 7.5 0 1 0 15 0 a7.5 7.5 0 1 0 -15 0zM707.1 129.61 a7.5 7.5 0 1 0 15 0 a7.5 7.5 0 1 0 -15 0zM707.1 204.61 a7.5 7.5 0 1 0 15 0 a7.5 7.5 0 1 0 -15 0zM642.14 242.11 a7.5 7.5 0 1 0 15 0 a7.5 7.5 0 1 0 -15 0zM577.19 204.61 a7.5 7.5 0 1 0 15 0 a7.5 7.5 0 1 0 -15 0zM577.19 129.61 a7.5 7.5 0 1 0 15 0 a7.5 7.5 0 1 0 -15 0zM642.14 317.11 a7.5 7.5 0 1 0 15 0 a7.5 7.5 0 1 0 -15 0zM577.19 354.61 a7.5 7.5 0 1 0 15 0 a7.5 7.5 0 1 0 -15 0zM512.24 317.11 a7.5 7.5 0 1 0 15 0 a7.5 7.5 0 1 0 -15 0zM512.24 242.11 a7.5 7.5 0 1 0 15 0 a7.5 7.5 0 1 0 -15 0zM577.19 429.61 a7.5 7.5 0 1 0 15 0 a7.5 7.5 0 1 0 -15 0zM642.14 467.11 a7.5 7.5 0 1 0 15 0 a7.5 7.5 0 1 0 -15 0zM642.14 542.11 a7.5 7.5 0 1 0 15 0 a7.5 7.5 0 1 0 -15 0zM512.24 467.11 a7.5 7.5 0 1 0 15 0 a7.5 7.5 0 1 0 -15 0zM707.1 579.61 a7.5 7.5 0 1 0 15 0 a7.5 7.5 0 1 0 -15 0zM707.1 654.61 a7.5 7.5 0 1 0 15 0 a7.5 7.5 0 1 0 -15 0zM642.14 692.11 a7.5 7.5 0 1 0 15 0 a7.5 7.5 0 1 0 -15 0zM707.1 -20.39 a7.5 7.5 0 1 0 15 0 a7.5 7.5 0 1 0 -15 0zM772.05 17.11 a7.5 7.5 0 1 0 15 0 a7.5 7.5 0 1 0 -15 0zM772.05 92.11 a7.5 7.5 0 1 0 15 0 a7.5 7.5 0 1 0 -15 0zM642.14 17.11 a7.5 7.5 0 1 0 15 0 a7.5 7.5 0 1 0 -15 0zM772.05 317.11 a7.5 7.5 0 1 0 15 0 a7.5 7.5 0 1 0 -15 0zM837.01 354.61 a7.5 7.5 0 1 0 15 0 a7.5 7.5 0 1 0 -15 0zM837.01 429.61 a7.5 7.5 0 1 0 15 0 a7.5 7.5 0 1 0 -15 0zM772.05 467.11 a7.5 7.5 0 1 0 15 0 a7.5 7.5 0 1 0 -15 0zM707.1 429.61 a7.5 7.5 0 1 0 15 0 a7.5 7.5 0 1 0 -15 0zM707.1 354.61 a7.5 7.5 0 1 0 15 0 a7.5 7.5 0 1 0 -15 0zM772.05 542.11 a7.5 7.5 0 1 0 15 0 a7.5 7.5 0 1 0 -15 0zM901.96 317.11 a7.5 7.5 0 1 0 15 0 a7.5 7.5 0 1 0 -15 0zM966.91 354.61 a7.5 7.5 0 1 0 15 0 a7.5 7.5 0 1 0 -15 0zM966.91 429.61 a7.5 7.5 0 1 0 15 0 a7.5 7.5 0 1 0 -15 0zM901.96 467.11 a7.5 7.5 0 1 0 15 0 a7.5 7.5 0 1 0 -15 0zM837 429.61 a7.5 7.5 0 1 0 15 0 a7.5 7.5 0 1 0 -15 0zM837 354.61 a7.5 7.5 0 1 0 15 0 a7.5 7.5 0 1 0 -15 0zM901.96 542.11 a7.5 7.5 0 1 0 15 0 a7.5 7.5 0 1 0 -15 0zM837 579.61 a7.5 7.5 0 1 0 15 0 a7.5 7.5 0 1 0 -15 0zM1031.87 317.11 a7.5 7.5 0 1 0 15 0 a7.5 7.5 0 1 0 -15 0zM1096.82 354.61 a7.5 7.5 0 1 0 15 0 a7.5 7.5 0 1 0 -15 0zM1096.82 429.61 a7.5 7.5 0 1 0 15 0 a7.5 7.5 0 1 0 -15 0zM1031.87 467.11 a7.5 7.5 0 1 0 15 0 a7.5 7.5 0 1 0 -15 0zM1161.77 92.11 a7.5 7.5 0 1 0 15 0 a7.5 7.5 0 1 0 -15 0zM1226.73 129.61 a7.5 7.5 0 1 0 15 0 a7.5 7.5 0 1 0 -15 0zM1226.73 204.61 a7.5 7.5 0 1 0 15 0 a7.5 7.5 0 1 0 -15 0zM1161.77 242.11 a7.5 7.5 0 1 0 15 0 a7.5 7.5 0 1 0 -15 0zM1096.82 204.61 a7.5 7.5 0 1 0 15 0 a7.5 7.5 0 1 0 -15 0zM1096.82 129.61 a7.5 7.5 0 1 0 15 0 a7.5 7.5 0 1 0 -15 0zM1161.77 317.11 a7.5 7.5 0 1 0 15 0 a7.5 7.5 0 1 0 -15 0zM1031.87 242.11 a7.5 7.5 0 1 0 15 0 a7.5 7.5 0 1 0 -15 0zM1226.73 354.61 a7.5 7.5 0 1 0 15 0 a7.5 7.5 0 1 0 -15 0zM1226.73 429.61 a7.5 7.5 0 1 0 15 0 a7.5 7.5 0 1 0 -15 0zM1161.77 467.11 a7.5 7.5 0 1 0 15 0 a7.5 7.5 0 1 0 -15 0zM1161.77 542.11 a7.5 7.5 0 1 0 15 0 a7.5 7.5 0 1 0 -15 0zM1096.82 579.61 a7.5 7.5 0 1 0 15 0 a7.5 7.5 0 1 0 -15 0zM1031.87 542.11 a7.5 7.5 0 1 0 15 0 a7.5 7.5 0 1 0 -15 0zM1291.68 92.11 a7.5 7.5 0 1 0 15 0 a7.5 7.5 0 1 0 -15 0zM1356.63 129.61 a7.5 7.5 0 1 0 15 0 a7.5 7.5 0 1 0 -15 0zM1356.63 204.61 a7.5 7.5 0 1 0 15 0 a7.5 7.5 0 1 0 -15 0zM1291.68 242.11 a7.5 7.5 0 1 0 15 0 a7.5 7.5 0 1 0 -15 0zM1291.68 542.11 a7.5 7.5 0 1 0 15 0 a7.5 7.5 0 1 0 -15 0zM1356.63 579.61 a7.5 7.5 0 1 0 15 0 a7.5 7.5 0 1 0 -15 0zM1356.63 654.61 a7.5 7.5 0 1 0 15 0 a7.5 7.5 0 1 0 -15 0zM1291.68 692.11 a7.5 7.5 0 1 0 15 0 a7.5 7.5 0 1 0 -15 0zM1226.73 654.61 a7.5 7.5 0 1 0 15 0 a7.5 7.5 0 1 0 -15 0zM1226.73 579.61 a7.5 7.5 0 1 0 15 0 a7.5 7.5 0 1 0 -15 0zM1421.59 92.11 a7.5 7.5 0 1 0 15 0 a7.5 7.5 0 1 0 -15 0zM1486.54 129.61 a7.5 7.5 0 1 0 15 0 a7.5 7.5 0 1 0 -15 0zM1486.54 204.61 a7.5 7.5 0 1 0 15 0 a7.5 7.5 0 1 0 -15 0zM1421.59 242.11 a7.5 7.5 0 1 0 15 0 a7.5 7.5 0 1 0 -15 0zM1421.59 317.11 a7.5 7.5 0 1 0 15 0 a7.5 7.5 0 1 0 -15 0zM1486.54 354.61 a7.5 7.5 0 1 0 15 0 a7.5 7.5 0 1 0 -15 0zM1486.54 429.61 a7.5 7.5 0 1 0 15 0 a7.5 7.5 0 1 0 -15 0zM1421.59 467.11 a7.5 7.5 0 1 0 15 0 a7.5 7.5 0 1 0 -15 0zM1356.63 429.61 a7.5 7.5 0 1 0 15 0 a7.5 7.5 0 1 0 -15 0zM1356.63 354.61 a7.5 7.5 0 1 0 15 0 a7.5 7.5 0 1 0 -15 0zM1421.59 542.11 a7.5 7.5 0 1 0 15 0 a7.5 7.5 0 1 0 -15 0zM1486.54 579.61 a7.5 7.5 0 1 0 15 0 a7.5 7.5 0 1 0 -15 0zM1486.54 654.61 a7.5 7.5 0 1 0 15 0 a7.5 7.5 0 1 0 -15 0zM1421.59 692.11 a7.5 7.5 0 1 0 15 0 a7.5 7.5 0 1 0 -15 0zM1551.5 92.11 a7.5 7.5 0 1 0 15 0 a7.5 7.5 0 1 0 -15 0zM1616.45 129.61 a7.5 7.5 0 1 0 15 0 a7.5 7.5 0 1 0 -15 0zM1616.45 204.61 a7.5 7.5 0 1 0 15 0 a7.5 7.5 0 1 0 -15 0zM1551.5 242.11 a7.5 7.5 0 1 0 15 0 a7.5 7.5 0 1 0 -15 0zM1551.5 317.11 a7.5 7.5 0 1 0 15 0 a7.5 7.5 0 1 0 -15 0zM1551.5 467.11 a7.5 7.5 0 1 0 15 0 a7.5 7.5 0 1 0 -15 0zM1551.5 542.11 a7.5 7.5 0 1 0 15 0 a7.5 7.5 0 1 0 -15 0zM1616.45 579.61 a7.5 7.5 0 1 0 15 0 a7.5 7.5 0 1 0 -15 0zM1616.45 654.61 a7.5 7.5 0 1 0 15 0 a7.5 7.5 0 1 0 -15 0zM1551.5 692.11 a7.5 7.5 0 1 0 15 0 a7.5 7.5 0 1 0 -15 0z" fill="#03305d"></path><path d="M107.75 393.49L225.53 461.49L225.53 597.49L107.75 665.49L-10.03 597.49L-10.03 461.49zM578.88 -14.51L696.66 53.49L696.66 189.49L578.88 257.49L461.1 189.49L461.1 53.49zM696.66 189.49L814.45 257.49L814.45 393.49L696.66 461.49L578.88 393.49L578.88 257.49zM932.23 189.49L1050.01 257.49L1050.01 393.49L932.23 461.49L814.45 393.49L814.45 257.49zM814.45 393.49L932.23 461.49L932.23 597.49L814.45 665.49L696.66 597.49L696.66 461.49zM932.23 597.49L1050.01 665.49L1050.01 801.49L932.23 869.49L814.45 801.49L814.45 665.49zM1167.8 189.49L1285.58 257.49L1285.58 393.49L1167.8 461.49L1050.01 393.49L1050.01 257.49zM1403.36 189.49L1521.14 257.49L1521.14 393.49L1403.36 461.49L1285.58 393.49L1285.58 257.49zM1521.14 -14.51L1638.93 53.49L1638.93 189.49L1521.14 257.49L1403.36 189.49L1403.36 53.49z" stroke="rgba(6, 80, 156, 0.93)" stroke-width="2"></path></g><defs><mask id="SvgjsMask1065"><rect width="1440" height="560" fill="#ffffff"></rect></mask></defs></svg>