<svg id="visual" viewBox="0 0 900 600" width="900" height="600" xmlns="http://www.w3.org/2000/svg" xmlns:xlink="http://www.w3.org/1999/xlink" version="1.1"><path d="M0 245L56 245L56 203L113 203L113 276L169 276L169 226L225 226L225 229L281 229L281 316L338 316L338 322L394 322L394 270L450 270L450 252L506 252L506 282L563 282L563 196L619 196L619 245L675 245L675 194L731 194L731 256L788 256L788 290L844 290L844 268L900 268L900 204L900 601L900 601L844 601L844 601L788 601L788 601L731 601L731 601L675 601L675 601L619 601L619 601L563 601L563 601L506 601L506 601L450 601L450 601L394 601L394 601L338 601L338 601L281 601L281 601L225 601L225 601L169 601L169 601L113 601L113 601L56 601L56 601L0 601Z" fill="#560090"></path><path d="M0 284L56 284L56 266L113 266L113 266L169 266L169 278L225 278L225 368L281 368L281 298L338 298L338 351L394 351L394 300L450 300L450 323L506 323L506 285L563 285L563 384L619 384L619 307L675 307L675 327L731 327L731 380L788 380L788 382L844 382L844 359L900 359L900 311L900 601L900 601L844 601L844 601L788 601L788 601L731 601L731 601L675 601L675 601L619 601L619 601L563 601L563 601L506 601L506 601L450 601L450 601L394 601L394 601L338 601L338 601L281 601L281 601L225 601L225 601L169 601L169 601L113 601L113 601L56 601L56 601L0 601Z" fill="#4b1080"></path><path d="M0 341L56 341L56 336L113 336L113 408L169 408L169 346L225 346L225 368L281 368L281 392L338 392L338 360L394 360L394 387L450 387L450 435L506 435L506 363L563 363L563 349L619 349L619 353L675 353L675 339L731 339L731 359L788 359L788 370L844 370L844 350L900 350L900 356L900 601L900 601L844 601L844 601L788 601L788 601L731 601L731 601L675 601L675 601L619 601L619 601L563 601L563 601L506 601L506 601L450 601L450 601L394 601L394 601L338 601L338 601L281 601L281 601L225 601L225 601L169 601L169 601L113 601L113 601L56 601L56 601L0 601Z" fill="#411770"></path><path d="M0 469L56 469L56 445L113 445L113 468L169 468L169 469L225 469L225 495L281 495L281 495L338 495L338 418L394 418L394 437L450 437L450 447L506 447L506 455L563 455L563 493L619 493L619 478L675 478L675 494L731 494L731 456L788 456L788 447L844 447L844 442L900 442L900 453L900 601L900 601L844 601L844 601L788 601L788 601L731 601L731 601L675 601L675 601L619 601L619 601L563 601L563 601L506 601L506 601L450 601L450 601L394 601L394 601L338 601L338 601L281 601L281 601L225 601L225 601L169 601L169 601L113 601L113 601L56 601L56 601L0 601Z" fill="#381b60"></path><path d="M0 503L56 503L56 512L113 512L113 485L169 485L169 484L225 484L225 541L281 541L281 555L338 555L338 521L394 521L394 491L450 491L450 532L506 532L506 552L563 552L563 510L619 510L619 481L675 481L675 528L731 528L731 505L788 505L788 496L844 496L844 519L900 519L900 487L900 601L900 601L844 601L844 601L788 601L788 601L731 601L731 601L675 601L675 601L619 601L619 601L563 601L563 601L506 601L506 601L450 601L450 601L394 601L394 601L338 601L338 601L281 601L281 601L225 601L225 601L169 601L169 601L113 601L113 601L56 601L56 601L0 601Z" fill="#301c4f"></path></svg>