<svg xmlns="http://www.w3.org/2000/svg" version="1.1" xmlns:xlink="http://www.w3.org/1999/xlink" xmlns:svgjs="http://svgjs.dev/svgjs" width="1440" height="560" preserveAspectRatio="none" viewBox="0 0 1440 560"><g mask="url(&quot;#SvgjsMask1000&quot;)" fill="none"><rect width="1440" height="560" x="0" y="0" fill="#0e2a47"></rect><path d="M1131.97 23.71 a32.81 32.81 0 1 0 65.62 0 a32.81 32.81 0 1 0 -65.62 0z" fill="#e73635"></path><path d="M447.38 72.92a33.17 33.17 0 1 0-31.34 58.47z" fill="#e73635"></path><path d="M1057.78 240.63L1108.32 240.63L1108.32 288.45L1057.78 288.45z" stroke="#037b0b"></path><path d="M154.16 238.83L194.08 238.83L194.08 278.75L154.16 278.75z" fill="#e73635"></path><path d="M886.38 374.45L924.07 374.45L924.07 424.84L886.38 424.84z" stroke="#037b0b"></path><path d="M715.55 538.5 a13.96 13.96 0 1 0 27.92 0 a13.96 13.96 0 1 0 -27.92 0z" stroke="#d3b714"></path><path d="M900.38 121.83L910.27 121.83L910.27 124.48L900.38 124.48z" stroke="#d3b714"></path><path d="M313.39 78L356.51 78L356.51 129.78L313.39 129.78z" fill="#e73635"></path><path d="M1079.22 143.34a19.73 19.73 0 1 0 31.06-24.34z" fill="#d3b714"></path><path d="M343.42 262.88a32.9 32.9 0 1 0 40.02-52.24z" stroke="#037b0b"></path><path d="M271.92 538.27 a30.43 30.43 0 1 0 60.86 0 a30.43 30.43 0 1 0 -60.86 0z" fill="#037b0b"></path><path d="M910.25 94.94L911.7 94.94L911.7 103.76L910.25 103.76z" fill="#e73635"></path><path d="M387 41.83L399.37 41.83L399.37 54.2L387 54.2z" fill="#e73635"></path><path d="M1298.72 221.09a1.28 1.28 0 1 0-0.01 2.56z" fill="#d3b714"></path><path d="M817.8 131.56L873.51 131.56L873.51 166.13L817.8 166.13z" fill="#037b0b"></path><path d="M251.92 324.92a21.55 21.55 0 1 0 36.25-23.32z" fill="#037b0b"></path><path d="M564.45 511.39 a30.73 30.73 0 1 0 61.46 0 a30.73 30.73 0 1 0 -61.46 0z" stroke="#e73635"></path><path d="M391.74 118.61 a31.57 31.57 0 1 0 63.14 0 a31.57 31.57 0 1 0 -63.14 0z" stroke="#e73635"></path><path d="M423.86 518.66a47.42 47.42 0 1 0 79.57 51.6z" fill="#d3b714"></path><path d="M844.25 82.15L886.25 82.15L886.25 124.15L844.25 124.15z" fill="#d3b714"></path><path d="M526.67 141.06a34.41 34.41 0 1 0-58.35 36.5z" fill="#d3b714"></path><path d="M376.34 176.81L423.28 176.81L423.28 223.75L376.34 223.75z" stroke="#d3b714"></path><path d="M14.22 533.27 a36.74 36.74 0 1 0 73.48 0 a36.74 36.74 0 1 0 -73.48 0z" fill="#e73635"></path><path d="M401.61 218.98 a18.97 18.97 0 1 0 37.94 0 a18.97 18.97 0 1 0 -37.94 0z" stroke="#037b0b"></path><path d="M395.69 370.47L409.09 370.47L409.09 397.09L395.69 397.09z" fill="#d3b714"></path><path d="M1195.85 533.34L1217.67 533.34L1217.67 555.16L1195.85 555.16z" fill="#e73635"></path><path d="M1262.7 333.13L1310.17 333.13L1310.17 380.6L1262.7 380.6z" fill="#d3b714"></path><path d="M893.84 187.65L916.93 187.65L916.93 210.74L893.84 210.74z" stroke="#e73635"></path><path d="M861.12 305.51L868.49 305.51L868.49 312.88L861.12 312.88z" stroke="#d3b714"></path><path d="M1363.4 498.61L1404.53 498.61L1404.53 516.65L1363.4 516.65z" fill="#e73635"></path><path d="M1340.45 3.18a11.51 11.51 0 1 0 22.24-5.92z" fill="#e73635"></path><path d="M369.91 399.73L383.99 399.73L383.99 413.81L369.91 413.81z" fill="#d3b714"></path><path d="M666.83 186.15a53.4 53.4 0 1 0-106.73 3.77z" stroke="#e73635"></path></g><defs><mask id="SvgjsMask1000"><rect width="1440" height="560" fill="#ffffff"></rect></mask></defs></svg>